<svg width="150" height="38" viewBox="0 0 150 38" fill="none" xmlns="http://www.w3.org/2000/svg">
<path d="M23.6242 7.79167C19.147 7.78864 14.4765 8.79773 9.75985 10.1061C9.16136 10.2273 8.57575 10.6182 8.26818 11.103C7.98409 11.5591 7.8803 12.0174 7.79166 12.5C7.33333 15.0659 7.38939 17.5871 7.48409 20.3773C7.50454 21.0167 7.60227 21.7773 7.89848 22.2364C8.21212 22.7008 8.74469 22.9962 9.38333 23.0939C10.2038 23.2182 11.0197 23.3136 11.8371 23.3992L11.6568 28.4417C11.6265 28.8409 11.825 29.1758 12.0682 29.3682C12.2871 29.5333 12.5303 29.6076 12.778 29.6258C13.275 29.6636 13.8614 29.4477 14.1515 28.8977C15.4242 26.447 16.2227 25.3674 17.8121 23.7386C21.9636 23.8432 25.5856 23.6121 29.6848 23.3068C31.1348 23.272 32.1318 22.0849 32.3955 21.1379C33.1795 18.6849 33.3038 15.6576 33.3864 12.5947C33.422 11.3811 33.0015 10.1917 32.2561 9.56137C31.5462 8.98713 30.6909 8.78031 29.9038 8.56743C27.7197 8.07273 25.5364 7.80682 23.6242 7.79167ZM29.5901 9.7091C30.3773 9.92273 31.0727 10.1296 31.5068 10.4849C32.2386 11.2599 32.2144 11.778 32.2061 12.6152C32.1227 15.5833 31.9811 18.4659 31.3091 20.65C31.0189 21.4636 30.5189 22.0439 29.5667 22.1296C25.3879 22.4402 21.7629 22.6803 17.5636 22.5583C17.4822 22.5559 17.401 22.5701 17.3252 22.6001C17.2494 22.63 17.1805 22.6751 17.1227 22.7326C15.3583 24.5144 14.4561 25.7553 13.1098 28.3439C13.0795 28.403 13.0114 28.4386 12.9265 28.4447C12.8735 28.4417 12.8492 28.397 12.8462 28.3591L13.0265 22.8894C13.0271 22.7417 12.9741 22.5988 12.8772 22.4874C12.7804 22.3759 12.6463 22.3034 12.5 22.2833C11.5194 22.189 10.5416 22.0685 9.56742 21.922C9.14697 21.8599 8.99318 21.7447 8.87803 21.5735C8.67651 21.0939 8.67954 20.7977 8.66515 20.3386C8.56969 17.5689 8.52576 15.1515 8.94848 12.7455C8.99015 12.3879 9.12348 12.0235 9.26515 11.722C9.5 11.3546 9.85757 11.3015 10.2182 11.2008C14.8288 9.92804 19.3394 8.97576 23.5886 8.97273C25.672 9.04622 27.8561 9.25682 29.5901 9.7091ZM13.6629 14.4C13.0265 15.1606 13.0886 16.1932 13.5795 16.8856C13.8371 17.2492 14.2371 17.5394 14.7227 17.6053C15.3561 17.6583 15.7583 17.4008 16.1901 17.1076C16.9742 16.4273 17.0538 15.2371 16.4568 14.3765C16.3124 14.1661 16.1213 13.9919 15.8984 13.8675C15.6755 13.7432 15.4269 13.6721 15.172 13.6599C14.4917 13.6659 14.0303 13.9682 13.6629 14.4ZM20.5341 13.7788C19.9015 13.7992 19.3894 14.2371 19.0758 14.7106C18.7197 15.2485 18.5106 15.9265 18.8 16.5924C19.3568 17.8682 21.2803 17.853 22.047 16.5546C22.3985 15.9561 22.3098 15.2758 22.047 14.7849C21.7833 14.2902 21.3864 13.8879 20.8098 13.7962C20.7187 13.7817 20.6264 13.7759 20.5341 13.7788ZM26.1129 13.897C25.9144 13.8919 25.7161 13.9138 25.5235 13.9621C24.7629 14.1667 24.1151 14.95 24.2129 15.9538C24.2629 16.4599 24.4939 16.9538 24.9144 17.2909C25.3341 17.6318 25.9409 17.7826 26.5833 17.6523C27.3197 17.5008 27.7788 16.9061 27.9295 16.3326C28.0833 15.7583 28.0455 15.175 27.6901 14.7015C27.506 14.456 27.2682 14.2558 26.9948 14.1164C26.7214 13.9769 26.4197 13.9019 26.1129 13.897ZM15.1212 14.8379C15.2606 14.8409 15.3727 14.8849 15.4879 15.0508C15.7455 15.4235 15.6742 15.9864 15.4144 16.2136C15.1568 16.4386 14.9939 16.4599 14.8788 16.4447C14.7659 16.4273 14.6508 16.35 14.547 16.2053C14.3515 15.9265 14.2924 15.4773 14.553 15.1546C14.6894 14.9712 14.9439 14.8553 15.1212 14.8379ZM20.6167 14.9682C20.6371 14.9712 20.8856 15.1159 21.0045 15.3379C21.1227 15.5599 21.1432 15.7644 21.0311 15.9538C20.6962 16.522 19.9856 16.3674 19.8795 16.122C19.8379 16.0273 19.8682 15.6485 20.0629 15.3561C20.2583 15.0599 20.5008 14.95 20.6159 14.9682H20.6167ZM26.7394 15.4C26.775 15.4508 26.8636 15.7727 26.7955 16.0273C26.7273 16.2849 26.6151 16.4417 26.3424 16.4977C25.9939 16.572 25.7985 16.4977 25.65 16.3796C25.5053 16.2614 25.4045 16.0599 25.3841 15.8439C25.3311 15.3114 25.5227 15.1871 25.828 15.1068C26.1803 15.0182 26.5795 15.172 26.7394 15.4ZM40.8083 10.1773C40.8169 10.0272 40.8753 9.88436 40.9742 9.77122C41.0236 9.71223 41.0857 9.66531 41.156 9.63406C41.2262 9.6028 41.3027 9.58805 41.3795 9.59091H45.3364C45.4697 9.59091 45.6091 9.64698 45.7508 9.75682C45.817 9.805 45.8708 9.86827 45.9077 9.94139C45.9446 10.0145 45.9635 10.0954 45.9629 10.1773V16.4924H52.5841V10.1773C52.5835 10.0989 52.5988 10.0213 52.629 9.94899C52.6592 9.87669 52.7037 9.81124 52.7598 9.75655C52.8159 9.70187 52.8824 9.65907 52.9555 9.63074C53.0285 9.60241 53.1065 9.58912 53.1848 9.59167H57.0871C57.2652 9.59167 57.4189 9.63561 57.5523 9.72425C57.6856 9.81289 57.753 9.95531 57.753 10.15V28.7879C57.753 28.9833 57.6939 29.1288 57.5788 29.2258C57.4636 29.3235 57.3121 29.3735 57.1258 29.3735H53.1841C53.0259 29.3797 52.8709 29.3271 52.7492 29.2258C52.6394 29.128 52.5833 28.9833 52.5833 28.7879V21.2212H45.9636V28.7879C45.9636 28.9743 45.9045 29.1197 45.7833 29.2197C45.6644 29.3235 45.5023 29.3735 45.2977 29.3735H41.3795C41.0068 29.3735 40.8174 29.1992 40.8083 28.853V10.1773ZM77.2553 29.1462C77.1504 29.2381 77.024 29.3022 76.8879 29.3326C76.7673 29.3585 76.6445 29.3722 76.5212 29.3735H74.5091C74.3492 29.3735 74.2129 29.3439 74.0977 29.2879C73.9848 29.2314 73.885 29.1519 73.8045 29.0546C73.722 28.9529 73.6542 28.8402 73.603 28.7197C73.5493 28.5948 73.5048 28.4662 73.4697 28.3349L73.0583 26.6303C72.9258 26.9061 72.7303 27.2167 72.4788 27.5689C72.2037 27.9399 71.879 28.2713 71.5136 28.5538C71.0885 28.8798 70.6168 29.1403 70.1144 29.3265C69.5727 29.5364 68.9515 29.6402 68.25 29.6402C67.2379 29.6402 66.3182 29.4447 65.4924 29.0546C64.6832 28.6765 63.9629 28.1318 63.3788 27.4561C62.7992 26.7818 62.3485 25.9917 62.0295 25.0924C61.7056 24.1649 61.5434 23.1885 61.55 22.2061V13.4826C61.55 13.1455 61.6212 12.8879 61.7697 12.7159C61.9136 12.5417 62.1485 12.4553 62.4674 12.4553H65.5455C65.9265 12.4553 66.1871 12.5205 66.3326 12.6477C66.4742 12.778 66.5447 13.0265 66.5447 13.4023V22.0735C66.5447 22.4553 66.6311 22.8159 66.8023 23.1591C67.1536 23.8477 67.7392 24.3883 68.4538 24.6833C68.8152 24.8349 69.1818 24.9106 69.5553 24.9106C69.8742 24.9106 70.2061 24.8349 70.5462 24.6833C70.8894 24.5318 71.203 24.3311 71.4932 24.0796C71.7803 23.825 72.0197 23.5265 72.2068 23.1856C72.3932 22.8424 72.4848 22.4811 72.4848 22.1V13.4409C72.4848 13.2902 72.5144 13.1394 72.5705 12.9886C72.6203 12.8495 72.7111 12.7288 72.8311 12.6424C72.9462 12.5712 73.0561 12.5212 73.1568 12.4939C73.2598 12.4674 73.378 12.4561 73.5114 12.4561H76.5212C76.903 12.4561 77.178 12.547 77.347 12.7341C77.5151 12.9205 77.6015 13.172 77.6015 13.4826V28.3886C77.6015 28.5568 77.5629 28.7106 77.4856 28.853C77.4155 28.9913 77.3078 29.1071 77.175 29.1871L77.2553 29.1462ZM92.7205 27.3083C92.4803 27.5477 92.2144 27.8053 91.9273 28.0811C91.6371 28.3561 91.3205 28.6136 90.9742 28.853C90.628 29.0924 90.2545 29.2909 89.8553 29.4477C89.4422 29.6041 89.0038 29.6824 88.5621 29.6788C87.3553 29.6788 86.2424 29.4538 85.2273 29.0008C84.2353 28.5658 83.3421 27.9336 82.6023 27.1424C81.8682 26.3553 81.2977 25.4288 80.8826 24.3636C80.472 23.2985 80.2644 22.153 80.2644 20.928C80.2644 19.6939 80.472 18.5455 80.8833 17.4833C81.297 16.4242 81.8682 15.5008 82.603 14.7136C83.3413 13.9226 84.2346 13.2921 85.2273 12.8614C86.2424 12.4144 87.3553 12.1894 88.5621 12.1894C89.0179 12.184 89.4713 12.256 89.903 12.4023C90.2923 12.5369 90.6632 12.7199 91.0068 12.947C91.3409 13.172 91.6462 13.4205 91.9273 13.7015C92.2053 13.9796 92.472 14.2546 92.7205 14.5212V8.43031C92.7205 8.14698 92.8061 7.90758 92.978 7.71213C93.1523 7.51667 93.4129 7.41895 93.7583 7.41895H96.7568C96.872 7.41895 96.9932 7.44546 97.1205 7.49319C97.2508 7.54319 97.3689 7.61137 97.4758 7.70001C97.5818 7.78864 97.6682 7.89546 97.7333 8.0197C97.8015 8.14395 97.8341 8.28031 97.8341 8.43107V28.347C97.8341 29.0303 97.4758 29.3735 96.7568 29.3735H94.1432C93.9659 29.3735 93.8295 29.3508 93.7326 29.3053C93.6356 29.2632 93.5509 29.1973 93.4864 29.1136C93.4108 29.0166 93.35 28.9089 93.3061 28.7939C93.253 28.6667 93.1848 28.5159 93.1045 28.347L92.7205 27.3083ZM85.0583 20.928C85.0583 21.5136 85.15 22.0614 85.3341 22.5735C85.5028 23.0627 85.7673 23.5134 86.1121 23.8993C86.4492 24.272 86.8545 24.5682 87.3318 24.7841C87.8045 25.003 88.3318 25.1099 88.9083 25.1099C89.4765 25.1099 90.0121 25.0091 90.5152 24.8046C91.0152 24.6 91.4538 24.3197 91.8258 23.9583C92.2016 23.5931 92.5067 23.1617 92.7258 22.6856C92.9526 22.1914 93.0813 21.6577 93.1045 21.1144V20.928C93.1045 20.3599 92.9985 19.8182 92.7856 19.303C92.5789 18.7986 92.2786 18.3377 91.9008 17.9447C91.521 17.5527 91.0687 17.2383 90.5689 17.0189C90.0458 16.789 89.4798 16.6728 88.9083 16.678C88.3318 16.678 87.8045 16.7917 87.3311 17.0189C86.8639 17.2383 86.4485 17.5541 86.1121 17.9455C85.7693 18.3448 85.5053 18.8054 85.3341 19.303C85.1492 19.8248 85.0559 20.3745 85.0583 20.928ZM113.299 27.3083C113.059 27.5477 112.796 27.8053 112.506 28.0811C112.218 28.3561 111.902 28.6136 111.556 28.853C111.21 29.0924 110.836 29.2909 110.435 29.4477C110.023 29.6041 109.585 29.6825 109.144 29.6788C107.937 29.6788 106.824 29.4538 105.806 29.0008C104.816 28.5649 103.924 27.9328 103.185 27.1424C102.45 26.3553 101.877 25.4288 101.465 24.3636C101.051 23.2985 100.846 22.153 100.846 20.928C100.846 19.6939 101.051 18.5455 101.465 17.4833C101.856 16.4585 102.439 15.5182 103.185 14.7136C103.923 13.9233 104.815 13.2929 105.806 12.8614C106.824 12.4144 107.937 12.1894 109.144 12.1894C109.633 12.1894 110.08 12.2606 110.482 12.4023C110.872 12.5369 111.243 12.7199 111.588 12.947C111.92 13.172 112.228 13.4205 112.506 13.7015C112.786 13.9796 113.051 14.2546 113.299 14.5212V8.43031C113.299 8.14698 113.388 7.90758 113.559 7.71213C113.733 7.51667 113.991 7.41895 114.338 7.41895H117.336C117.451 7.41895 117.572 7.44546 117.702 7.49319C117.83 7.54319 117.948 7.61137 118.055 7.70001C118.161 7.78864 118.25 7.89546 118.315 8.0197C118.383 8.14395 118.416 8.28031 118.416 8.43107V28.347C118.416 29.0303 118.055 29.3735 117.336 29.3735H114.725C114.548 29.3735 114.409 29.3508 114.311 29.3053C114.215 29.2624 114.13 29.1966 114.065 29.1136C113.991 29.0159 113.93 28.9083 113.885 28.7939C113.832 28.6667 113.767 28.5159 113.686 28.347L113.299 27.3083ZM105.64 20.928C105.64 21.5136 105.732 22.0614 105.913 22.5735C106.084 23.0623 106.349 23.5127 106.693 23.8993C107.031 24.272 107.436 24.5682 107.91 24.7841C108.387 25.003 108.914 25.1099 109.49 25.1099C110.04 25.114 110.585 25.0102 111.095 24.8046C111.583 24.6102 112.029 24.3228 112.408 23.9583C112.784 23.5931 113.089 23.1616 113.308 22.6856C113.534 22.1914 113.663 21.6577 113.686 21.1144V20.928C113.687 19.8145 113.254 18.7444 112.479 17.9447C112.1 17.5515 111.648 17.2368 111.148 17.0189C110.626 16.7887 110.061 16.6725 109.49 16.678C108.914 16.678 108.386 16.7917 107.91 17.0189C107.444 17.2391 107.03 17.5548 106.694 17.9455C106.351 18.3454 106.086 18.8058 105.913 19.303C105.73 19.8253 105.638 20.3748 105.64 20.928ZM121.958 8.44546C121.958 8.16137 122.029 7.92198 122.17 7.72652C122.313 7.53107 122.558 7.4341 122.905 7.4341H126.169C126.258 7.4341 126.349 7.45682 126.447 7.50758C126.545 7.55531 126.636 7.62273 126.72 7.71213C126.805 7.80076 126.877 7.90758 126.932 8.03182C126.992 8.15607 127.021 8.2947 127.021 8.44546V28.347C127.021 28.6841 126.923 28.9417 126.734 29.1136C126.542 29.2879 126.296 29.3735 125.995 29.3735H122.905C122.558 29.3735 122.314 29.2879 122.171 29.1136C122.029 28.9417 121.958 28.6841 121.958 28.347L121.958 8.44546ZM144.389 27.35C143.618 28.0634 142.725 28.6334 141.753 29.0333C140.776 29.4386 139.74 29.6402 138.648 29.6402C137.432 29.6402 136.284 29.4182 135.201 28.9742C134.14 28.5469 133.172 27.9202 132.348 27.128C131.527 26.337 130.866 25.3944 130.404 24.3523C129.924 23.2864 129.684 22.1265 129.684 20.875C129.684 20.0932 129.78 19.3356 129.972 18.6023C130.161 17.8712 130.433 17.1849 130.783 16.5455C131.135 15.9064 131.564 15.313 132.061 14.7788C133.07 13.7009 134.353 12.9166 135.772 12.5091C136.499 12.2955 137.269 12.1894 138.077 12.1894C138.814 12.1894 139.527 12.2871 140.223 12.4826C141.589 12.8653 142.835 13.5892 143.845 14.5864C144.345 15.0757 144.783 15.6242 145.15 16.2197C145.514 16.8083 145.795 17.4394 145.996 18.1106C146.195 18.7796 146.295 19.472 146.295 20.1826C146.295 20.6439 146.289 21.0197 146.274 21.3129C146.262 21.6061 146.195 21.8394 146.07 22.0144C145.945 22.1856 145.739 22.3068 145.448 22.372C145.161 22.4402 144.736 22.4727 144.176 22.4727H134.585C134.674 23.0409 134.855 23.5174 135.127 23.8993C135.396 24.2811 135.71 24.5856 136.064 24.8106C136.42 25.0379 136.799 25.1985 137.198 25.2955C137.568 25.39 137.947 25.4398 138.329 25.4439C138.648 25.4439 138.977 25.4114 139.314 25.3432C139.646 25.2797 139.974 25.1908 140.293 25.0773C140.593 24.974 140.883 24.8452 141.161 24.6924C141.421 24.5439 141.634 24.3902 141.794 24.2303C141.936 24.1152 142.058 24.0296 142.158 23.9727C142.257 23.9146 142.371 23.884 142.486 23.8841C142.602 23.8841 142.72 23.9258 142.839 24.0053C142.96 24.0856 143.093 24.2008 143.244 24.3523L144.655 25.95C144.754 26.0652 144.815 26.1689 144.842 26.2636C144.869 26.3553 144.883 26.453 144.883 26.5508C144.887 26.7157 144.835 26.8771 144.736 27.0091C144.637 27.1364 144.523 27.2515 144.389 27.35ZM137.983 16.2523C137.636 16.2523 137.302 16.3205 136.977 16.4599C136.654 16.5962 136.348 16.7788 136.064 17.0099C135.78 17.2425 135.523 17.5068 135.298 17.7977C135.083 18.0748 134.897 18.3743 134.745 18.6909H141.555C141.375 18.3573 141.172 18.0368 140.948 17.7318C140.733 17.4427 140.482 17.1822 140.202 16.9568C139.913 16.7315 139.589 16.5563 139.243 16.4386C138.882 16.3144 138.462 16.2523 137.983 16.2523Z" fill="white"/>
</svg>
